<svg xmlns="http://www.w3.org/2000/svg" viewBox="0 0 800 400">
	<defs>
		<style>.a{fill:#06152b;}.a,.b{opacity:0.02;}.b{fill:#111;}.c,.j{fill:#f2f2f2;}.d{opacity:0.1;}.e{fill:none;stroke:#425760;stroke-miterlimit:10;stroke-width:1.68px;}.f,.g{fill:#d9dadb;}.g,.h,.i,.j,.k,.l,.m{fill-rule:evenodd;}.h{fill:#666464;}.i{fill:#e2e2e2;}.k{fill:#e8e8e8;}.l{fill:#eaeaea;}.m{fill:#e0e0e0;}.n{fill:#0f1e51;}.o{fill:#fed2be;}.p{fill:#bdd7ef;}.q{fill:#cae0f9;}.r{fill:#333d8c;}.s{fill:#2d3486;}.t{fill:#f3c541;}.u{fill:#101e51;}.v{fill:#26479b;}.w{fill:#fe825e;}.x{fill:#cea232;}.y{fill:#4d61b4;}.z{fill:#c9523a;}.aa{fill:#c2c4c6;}
		</style>
	</defs>

<!-- Leaf -->
<path class="b" d="M616.77,295s-28.38,35.14,10.57,24.91,93.39-9.44,72.35-32.14S618.29,284.93,616.77,295Z"/>
<path class="c" d="M683.64,299.61s17-.81,14.82-24.5-13.87-24-7.31-40.51,2.87-15.77-3.06-23.18-12.19-12.35-18.32-21-14.27,12.11-18,18S637,220.74,646.61,234.6s10.11,17.57-3.83,22.75-18.3,17.14-11.63,30.47S614,309.46,639.2,307.48A230,230,0,0,0,683.64,299.61Z"/>
<g class="d">
<path class="e" d="M663,297.6s11.41-70.2,4.21-78"/>
<path class="e" d="M668.88,241.22s-11.49-2.08-11.7-7.44"/>
<path class="e" d="M667.37,265.5s16.82,9.41,17.26,0"/>
<path class="e" d="M665.58,279.92s-2.49,5.93-9.23,0"/>
</g>

<!-- Leaf -->
<path class="b" d="M129.34,123.33s-34.27,27.27,1.5,26.33,102.08,10.71,88.5-13.19S132.7,115,129.34,123.33Z"/>
<path class="c" d="M154.75,144.41s-37.31-32.58-20.59-38.48S134.8,73.68,145.1,64,150.24,17,165,22.19s48.89,35.38,29.59,54.67,10.94,42.41,10.94,42.41S212.64,143.13,154.75,144.41Z"/>

<g class="d">
<path class="e" d="M172.11,135.66s-8.56-80.41.1-88.81"/>
<path class="e" d="M169,71.29s13.16-1.64,13.75-7.71"/>
<path class="e" d="M169.16,99s-19.69,9.63-19.6-1.08"/>
<path class="e" d="M170.28,115.42s2.46,6.89,10.48.58"/>
</g>

<!-- Leaf -->
<path class="b" d="M129.45,332.85s-28.21,24,5.94,23.12,92.93,12.24,80-10.58S132.65,324.85,129.45,332.85Z"/>
<path class="c" d="M186.86,342.54c-16,7.78-35.47,4.21-46.86-9.44-5.83-7-8.53-15.59-1.53-25,17.71-23.67-6.15-50.47,11.2-64.68s66.66,14.39,48.91,37.07C182.92,300.54,228.65,322.2,186.86,342.54Z"/>
<g class="d">
<path class="e" d="M171.29,339.86s-7.82-73.49.1-81.17"/>
<path class="e" d="M168.42,281s12-1.5,12.57-7"/>
<path class="e" d="M168.6,306.31s-18,8.8-17.91-1"/>
<path class="e" d="M169.63,321.37s2.24,6.29,9.57.52"/>
</g>

<!-- Leaf -->
<path class="b" d="M643.24,126.19S582,145.08,567.89,136.92c-9.3-5.37-8.38-34.86-8.38-34.86S651,112.38,643.24,126.19Z"/>
<path class="c" d="M617.81,124c-16,7.79-35.47,4.21-46.86-9.44-5.83-7-8.53-15.59-1.52-25C587.13,66,563.27,39.15,580.63,25S647.28,39.33,629.53,62C613.88,82,659.6,103.68,617.81,124Z"/>
<g class="d">
<path class="e" d="M602.25,121.34s-7.83-73.49.09-81.17"/>
<path class="e" d="M599.37,62.51s12-1.5,12.57-7"/>
<path class="e" d="M599.55,87.79s-18,8.8-17.91-1"/>
<path class="e" d="M600.58,102.85s2.24,6.3,9.57.53"/>
</g>

<!-- Plant -->
<ellipse class="b" cx="364.66" cy="367.69" rx="19.37" ry="6.09"/>
<polygon class="c" points="368.84 370.93 368.3 349.37 367.22 351.25 367.49 371.2 368.84 370.93"/>
<path class="f" d="M365.4,367.7V352.92s-.51-45.36-6.63-43.83,4.59,45.36,4.59,45.36l1.53,14.27Z"/>
<path class="c" d="M368,355s-9.43-22.1-4.58-31.54,5.12,28.57,5.12,28.57"/>
<path class="f" d="M358.2,368.25s3.86-40-9.9-45.36-16.82,3.06-9.17,7.64S359.73,342.26,358.2,368.25Z"/>
<path class="c" d="M371.23,371.05s-3.06-41.28,6.88-39,6.12,8.41,1.53,13S370.47,361.87,371.23,371.05Z"/>

<!-- Plant -->
<ellipse class="b" cx="82.3" cy="248.96" rx="19.37" ry="6.09"/>
<polygon class="c" points="78.13 252.19 78.67 230.63 79.74 232.51 79.47 252.46 78.13 252.19"/>
<path class="f" d="M81.57,249V234.18s.51-45.35,6.62-43.82-4.59,45.35-4.59,45.35L82.08,250Z"/>
<path class="c" d="M78.94,236.29s9.43-22.1,4.58-31.53-5.12,28.56-5.12,28.56"/>
<path class="f" d="M88.76,249.52s-3.85-40,9.91-45.37,16.82,3.06,9.17,7.65S87.24,223.53,88.76,249.52Z"/>
<path class="c" d="M75.73,252.31s3.06-41.28-6.87-39-6.12,8.41-1.53,13S76.5,243.14,75.73,252.31Z"/>
</svg>